<svg width="17" height="17" viewBox="0 0 17 17" fill="none" xmlns="http://www.w3.org/2000/svg">
<path d="M6.94444 7.86944C7.82778 7.44722 8.28889 6.80833 8.28889 5.81389C8.28889 3.85278 6.82778 3.375 5.14167 3.375H0.5V13.2194H5.27222C7.06111 13.2194 8.74167 12.3611 8.74167 10.3611C8.74167 9.125 8.15556 8.21111 6.94444 7.86944ZM2.66389 5.05556H4.69444C5.475 5.05556 6.17778 5.275 6.17778 6.18056C6.17778 7.01667 5.63056 7.35278 4.85833 7.35278H2.66389V5.05556ZM4.97778 11.5472H2.66389V8.83611H5.02222C5.975 8.83611 6.57778 9.23333 6.57778 10.2417C6.57778 11.2361 5.85833 11.5472 4.97778 11.5472ZM14.9361 4.86111H10.9444V3.89167H14.9361V4.86111ZM16.5 9.75833C16.5 7.65 15.2667 5.89167 13.0306 5.89167C10.8583 5.89167 9.38333 7.525 9.38333 9.66389C9.38333 11.8833 10.7806 13.4056 13.0306 13.4056C14.7333 13.4056 15.8361 12.6389 16.3667 11.0083H14.6389C14.4528 11.6167 13.6861 11.9389 13.0917 11.9389C11.9444 11.9389 11.3417 11.2667 11.3417 10.125H16.4833C16.4917 10.0083 16.5 9.88333 16.5 9.75833ZM11.3444 8.89167C11.4083 7.95556 12.0306 7.36944 12.9694 7.36944C13.9528 7.36944 14.4472 7.94722 14.5306 8.89167H11.3444Z" fill="white"/>
</svg>
