<svg width="15" height="15" viewBox="0 0 15 15" fill="none" xmlns="http://www.w3.org/2000/svg">
<path d="M7.50352 3.79844C5.51602 3.79844 3.91289 5.40156 3.91289 7.38906C3.91289 9.37656 5.51602 10.9797 7.50352 10.9797C9.49102 10.9797 11.0941 9.37656 11.0941 7.38906C11.0941 5.40156 9.49102 3.79844 7.50352 3.79844ZM7.50352 9.72344C6.21914 9.72344 5.16914 8.67656 5.16914 7.38906C5.16914 6.10156 6.21602 5.05469 7.50352 5.05469C8.79102 5.05469 9.83789 6.10156 9.83789 7.38906C9.83789 8.67656 8.78789 9.72344 7.50352 9.72344ZM12.0785 3.65156C12.0785 4.11719 11.7035 4.48906 11.241 4.48906C10.7754 4.48906 10.4035 4.11406 10.4035 3.65156C10.4035 3.18906 10.7785 2.81406 11.241 2.81406C11.7035 2.81406 12.0785 3.18906 12.0785 3.65156ZM14.4566 4.50156C14.4035 3.37969 14.1473 2.38594 13.3254 1.56719C12.5066 0.748437 11.5129 0.492188 10.391 0.435937C9.23477 0.370313 5.76914 0.370313 4.61289 0.435937C3.49414 0.489063 2.50039 0.745312 1.67852 1.56406C0.856641 2.38281 0.603516 3.37656 0.547266 4.49844C0.481641 5.65469 0.481641 9.12031 0.547266 10.2766C0.600391 11.3984 0.856641 12.3922 1.67852 13.2109C2.50039 14.0297 3.49102 14.2859 4.61289 14.3422C5.76914 14.4078 9.23477 14.4078 10.391 14.3422C11.5129 14.2891 12.5066 14.0328 13.3254 13.2109C14.1441 12.3922 14.4004 11.3984 14.4566 10.2766C14.5223 9.12031 14.5223 5.65781 14.4566 4.50156ZM12.9629 11.5172C12.7191 12.1297 12.2473 12.6016 11.6316 12.8484C10.7098 13.2141 8.52227 13.1297 7.50352 13.1297C6.48477 13.1297 4.29414 13.2109 3.37539 12.8484C2.76289 12.6047 2.29102 12.1328 2.04414 11.5172C1.67852 10.5953 1.76289 8.40781 1.76289 7.38906C1.76289 6.37031 1.68164 4.17969 2.04414 3.26094C2.28789 2.64844 2.75977 2.17656 3.37539 1.92969C4.29727 1.56406 6.48477 1.64844 7.50352 1.64844C8.52227 1.64844 10.7129 1.56719 11.6316 1.92969C12.2441 2.17344 12.716 2.64531 12.9629 3.26094C13.3285 4.18281 13.2441 6.37031 13.2441 7.38906C13.2441 8.40781 13.3285 10.5984 12.9629 11.5172Z" fill="white"/>
</svg>
