<svg width="17" height="17" viewBox="0 0 17 17" fill="none" xmlns="http://www.w3.org/2000/svg">
<path d="M8.5 0.640625C4.22662 0.640625 0.75 4.11725 0.75 8.39062C0.75 12.664 4.22662 16.1406 8.5 16.1406C12.7734 16.1406 16.25 12.664 16.25 8.39062C16.25 4.11725 12.7734 0.640625 8.5 0.640625ZM13.6241 4.21456C14.546 5.341 15.1043 6.77572 15.1189 8.33816C14.9007 8.292 12.7121 7.84809 10.5095 8.12509C10.3297 7.68631 10.1601 7.30031 9.92769 6.82466C12.3752 5.82538 13.4845 4.40334 13.6241 4.21456ZM12.8882 3.44906C12.7691 3.61866 11.7726 4.958 9.41875 5.84028C8.334 3.84728 7.13172 2.21003 6.94875 1.96503C9.048 1.459 11.2602 2.00472 12.8882 3.44906ZM5.68566 2.41C5.86019 2.64934 7.04309 4.28862 8.13994 6.23841C5.04347 7.06069 2.31619 7.04884 2.02013 7.04494C2.44938 4.99078 3.83369 3.28353 5.68566 2.41ZM1.88031 8.40072C1.88031 8.33303 1.88166 8.26566 1.88369 8.19844C2.17331 8.20438 5.38119 8.24572 8.687 7.25637C8.8765 7.62725 9.05753 8.00372 9.22369 8.37978C6.82997 9.054 4.65513 10.99 3.58209 12.8268C2.52481 11.6533 1.88031 10.1009 1.88031 8.40072ZM4.43678 13.623C5.12825 12.2095 7.00484 10.3848 9.67362 9.47437C10.603 11.8895 10.9873 13.9135 11.0858 14.4943C8.95728 15.401 6.39781 15.1522 4.43678 13.623ZM12.1987 13.8883C12.1308 13.4856 11.7785 11.5478 10.9127 9.1685C12.987 8.83644 14.8095 9.38 15.036 9.45147C14.7409 11.2934 13.6837 12.8841 12.1987 13.8883Z" fill="white"/>
</svg>
