<svg width="31" height="31" viewBox="0 0 31 31" fill="none" xmlns="http://www.w3.org/2000/svg">
<path d="M15.5 28.7148C16.4785 28.7148 17.8672 27.8711 19.127 25.3574C19.707 24.1973 20.1934 22.7969 20.5391 21.2148H10.4609C10.8066 22.7969 11.293 24.1973 11.873 25.3574C13.1328 27.8711 14.5215 28.7148 15.5 28.7148ZM10.127 19.3398H20.873C21.0371 18.1562 21.125 16.8965 21.125 15.5898C21.125 14.2832 21.0371 13.0234 20.873 11.8398H10.127C9.96289 13.0234 9.875 14.2832 9.875 15.5898C9.875 16.8965 9.96289 18.1562 10.127 19.3398ZM10.4609 9.96484H20.5391C20.1934 8.38281 19.707 6.98242 19.127 5.82227C17.8672 3.30859 16.4785 2.46484 15.5 2.46484C14.5215 2.46484 13.1328 3.30859 11.873 5.82227C11.293 6.98242 10.8066 8.38281 10.4609 9.96484ZM22.7656 11.8398C22.918 13.041 23 14.2949 23 15.5898C23 16.8848 22.918 18.1387 22.7656 19.3398H28.0859C28.4375 18.1504 28.6309 16.8906 28.6309 15.5898C28.6309 14.2891 28.4434 13.0293 28.0859 11.8398H22.7656ZM27.3652 9.96484C25.8477 6.77148 23.082 4.28711 19.6953 3.15039C20.9258 4.80859 21.8984 7.18164 22.4609 9.96484H27.3711H27.3652ZM8.55078 9.96484C9.11328 7.17578 10.0859 4.80859 11.3164 3.15039C7.92383 4.28711 5.15234 6.77148 3.64062 9.96484H8.54492H8.55078ZM2.92578 11.8398C2.57422 13.0293 2.38086 14.2891 2.38086 15.5898C2.38086 16.8906 2.56836 18.1504 2.92578 19.3398H8.23438C8.08203 18.1387 8 16.8848 8 15.5898C8 14.2949 8.08203 13.041 8.23438 11.8398H2.91992H2.92578ZM19.6895 28.0293C23.0762 26.8867 25.8418 24.4082 27.3594 21.2148H22.4551C21.8926 24.0039 20.9199 26.3711 19.6895 28.0293ZM11.3105 28.0293C10.0801 26.3711 9.11328 23.998 8.54492 21.2148H3.64062C5.1582 24.4082 7.92383 26.8926 11.3105 28.0293ZM15.5 30.5898C11.5218 30.5898 7.70644 29.0095 4.8934 26.1964C2.08035 23.3834 0.5 19.5681 0.5 15.5898C0.5 11.6116 2.08035 7.79629 4.8934 4.98324C7.70644 2.1702 11.5218 0.589844 15.5 0.589844C19.4782 0.589844 23.2936 2.1702 26.1066 4.98324C28.9196 7.79629 30.5 11.6116 30.5 15.5898C30.5 19.5681 28.9196 23.3834 26.1066 26.1964C23.2936 29.0095 19.4782 30.5898 15.5 30.5898Z" fill="white"/>
</svg>
